<?xml version="1.0" standalone="no"?>
<!DOCTYPE svg PUBLIC "-//W3C//DTD SVG 20010904//EN"
 "http://www.w3.org/TR/2001/REC-SVG-20010904/DTD/svg10.dtd">
<svg version="1.0" xmlns="http://www.w3.org/2000/svg"
 width="1376.000000pt" height="1376.000000pt" viewBox="0 0 1376.000000 1376.000000"
 preserveAspectRatio="xMidYMid meet">
<metadata>
Created by potrace 1.14, written by Peter Selinger 2001-2017
</metadata>
<g transform="translate(0.000000,1376.000000) scale(0.100000,-0.100000)"
fill="#000000" stroke="none">
<path d="M7520 9684 c-295 -34 -453 -64 -650 -124 -471 -141 -913 -418 -1219
-764 -431 -485 -663 -1072 -701 -1770 -21 -385 22 -689 141 -996 260 -670 855
-1115 1662 -1242 125 -20 180 -22 462 -23 258 0 343 4 440 18 353 53 634 137
911 273 126 61 381 221 415 260 12 13 73 313 203 999 102 539 186 988 186 998
0 16 -49 17 -884 17 -655 0 -887 -3 -892 -11 -10 -16 -182 -922 -177 -931 2
-5 148 -8 324 -8 225 0 319 -3 319 -11 0 -6 -16 -95 -36 -199 l-36 -187 -77
-27 c-313 -107 -696 -113 -1001 -14 -350 113 -595 401 -655 772 -17 105 -19
340 -5 471 74 639 456 1141 1005 1319 167 55 282 71 505 70 221 0 320 -12 480
-60 196 -59 393 -187 531 -346 34 -40 70 -81 79 -91 16 -18 38 -1 471 357 250
207 455 380 457 384 4 13 -120 162 -209 251 -324 323 -715 507 -1264 593 -106
16 -188 21 -440 23 -170 2 -326 1 -345 -1z"/>
</g>
</svg>
